<svg version="1.2" xmlns="http://www.w3.org/2000/svg" viewBox="0 0 59 208" width="59" height="208">
	<title>buttons-bottom</title>
	<style>
		.s0 { opacity: 1;fill: #98acba } 
		.s1 { opacity: .5;fill: #93d9fb } 
		.s2 { opacity: 1;fill: #97bac1 } 
		.s3 { opacity: 1;fill: #8fdafa } 
		.s4 { opacity: .4;fill: #97b2bd } 
	</style>
	<g id="Background">
		<path id="Path 0" fill-rule="evenodd" class="s0" d="m36.4 172.7c0.6 0.3-1.2 2.7-4.4 5.8c-3.6 3.5-5.1 5.5-4.2 5.9c0.6 0.3 1.8 0.1 2.5-0.4c0.6-0.6 2.3-0.9 3.7-0.8c1.9 0.2 2.6 0.9 2.8 3.1c0.1 2.1-0.2 2.7-1.8 2.7c-1.1 0-3.8-0.8-10.1-3.5l-2.7 2.8c-1.5 1.5-3.1 2.4-3.5 2c-0.4-0.5 3.1-4.7 7.9-9.5c4.8-4.8 9.2-8.4 9.8-8.1zm-2.4 14.3c0.5 0 0.8-0.4 0.5-1c-0.3-0.6-1-1-1.6-1c-0.6 0-0.8 0.4-0.5 1c0.3 0.6 1.1 1 1.6 1z" />
		<path id="Path 1" class="s1" d="m29.5 147.4c16.5 0 23.5 0.2 15.5 0.3c-8 0.2-21.5 0.2-30 0c-8.5-0.1-2-0.3 14.5-0.3z" />
		<path id="Path 2" fill-rule="evenodd" class="s2" d="m28.1 11c3 0 4.6 0.7 6.9 3q3 3 3 6c0 1.6-0.6 4.2-1.3 5.6c-0.6 1.5-2.4 3.3-4 4c-1.5 0.8-3.6 1.4-4.7 1.4c-1.1 0-3.2-0.6-4.6-1.2c-1.5-0.7-3.3-2.5-4-4c-0.8-1.6-1.4-4.1-1.5-5.7c0-2 0.9-3.9 3.1-6c2.4-2.4 4-3.1 7.1-3.1zm-6.3 5.5c-0.7 1-1.3 3.1-1.3 4.6c0 1.6 1 3.8 2.3 5.1c1.4 1.5 3.4 2.3 5.3 2.2c1.7 0 4-1 5.2-2.3c1.3-1.2 2.2-3.4 2.2-5.1c0-1.6-0.9-3.8-2-4.9c-1.1-1-2.9-2.1-4-2.4c-1.1-0.3-3-0.2-4.2 0.3c-1.2 0.4-2.7 1.6-3.5 2.5zm3.2 38.5c0.3 0 1 0.5 1.7 1.2c1 1.1 1.5 1 2.8-0.1c1.3-1.1 1.9-1.1 4 0.3c1.4 0.9 2.2 2.2 1.9 2.8c-0.3 0.7 0.2 1.6 1 2c0.9 0.5 1.6 2.1 1.6 3.8c0 1.8-0.7 3.4-1.8 3.9c-0.9 0.5-1.4 1.3-0.9 1.8c0.4 0.4-0.1 1.6-1 2.6c-1 1-2.6 1.8-3.6 1.7c-0.9 0-1.9-0.6-2.2-1.3c-0.4-1-0.6-1-1 0c-0.3 0.7-1.3 1.3-2.3 1.3c-0.9 0-2.5-0.7-3.5-1.5c-0.9-0.8-1.5-2.2-1.2-3c0.3-0.8-0.2-1.7-1-2c-0.9-0.3-1.5-1.7-1.5-3.5c0-1.7 0.7-3.3 1.6-3.8c0.8-0.4 1.3-1.3 1-2c-0.3-0.6 0.4-1.9 1.6-2.7c1.3-0.8 2.5-1.5 2.8-1.5zm-3.3 8.5l-2.2 1.5c3.6 2.4 4.3 3.7 4 4.7c-0.4 1.5 0.2 1.8 4.5 1.8c4.3 0 4.9-0.3 4.5-1.8c-0.3-1 0.4-2.3 1.7-3.2l2.3-1.5c-3.6-2.4-4.3-3.7-4-4.8c0.4-1.4-0.2-1.7-4.5-1.7c-4.3 0-4.9 0.3-4.5 1.7c0.3 1.1-0.4 2.4-1.8 3.3z" />
		<path id="Path 3" fill-rule="evenodd" class="s3" d="m28 97c2.7 0 5.8 0.8 7.8 2c1.7 1.1 4.1 3.5 5.2 5.3c1.2 1.9 2 5 2 7.7c0 2.7-0.8 5.8-2 7.8c-1.1 1.7-3.5 4.1-5.3 5.2c-1.9 1.2-5 2-7.7 2c-2.7 0-5.8-0.8-7.8-2c-1.7-1.1-4.1-3.5-5.2-5.3c-1.2-1.9-2-5-2-7.7c0-2.7 0.8-5.8 2-7.8c1.1-1.7 3.5-4.1 5.3-5.2c1.9-1.2 5-2 7.7-2zm-11.1 9c-1.1 1.9-1.9 4.6-1.9 6c0 1.4 0.8 4.1 1.9 6c1 1.9 3.4 4.3 5.2 5.3c1.9 0.9 4.5 1.7 5.9 1.7c1.4 0 4-0.8 5.9-1.7c1.8-1 4.2-3.4 5.2-5.3c1.1-1.9 1.9-4.6 1.9-6c0-1.4-0.8-4.1-1.9-6c-1-1.9-3.4-4.3-5.2-5.3c-1.9-0.9-4.5-1.7-5.9-1.7c-1.4 0-4 0.8-5.9 1.7c-1.8 1-4.2 3.4-5.2 5.3z" />
		<path id="Path 4" fill-rule="evenodd" class="s0" d="m21.8 171.2c2 0.2 2.8 0.9 3 2.8c0.1 1.4-0.2 3-0.8 3.5c-0.5 0.6-0.8 1.8-0.5 2.8c0.3 0.9 0.1 1.7-0.5 1.7c-0.6 0-1.7-1.6-2.5-3.5c-0.8-1.9-1.5-4.4-1.4-5.6c0-1.6 0.6-2 2.7-1.7zm0.2 4.3c0.5 0.3 1 0.1 1.1-0.4c0.1-0.6-0.3-1.3-0.9-1.6c-0.5-0.3-1-0.1-1.1 0.4c-0.1 0.6 0.3 1.3 0.9 1.6z" />
		<path id="Path 5" class="s4" d="m17.7 63.5c0.2 0.5 0.2 1.7 0 2.5c-0.3 0.8-0.5 0.4-0.5-1c0-1.4 0.2-2 0.5-1.5zm21 0c0.2 0.5 0.2 1.7 0 2.5c-0.3 0.8-0.5 0.4-0.5-1c0-1.4 0.2-2 0.5-1.5z" />
		<path id="Path 6" class="s2" d="m28 16c0.6 0 1 0.7 1 1.5c0 0.8 0.9 1.5 2 1.5c1.1 0 2 0.4 2 1c0 0.6-0.7 1-1.5 1c-1.2 0-1.3 0.4-0.5 2c0.8 1.6 0.7 2-0.5 2c-0.8 0-1.7-0.6-2-1.3c-0.4-0.9-0.6-0.9-1 0.1c-0.3 0.6-1.2 1.2-2 1.2c-1.2 0-1.3-0.4-0.5-2c0.8-1.6 0.7-2-0.5-2c-0.8 0-1.5-0.4-1.5-1c0-0.6 0.9-1 2-1c1.1 0 2-0.7 2-1.5c0-0.8 0.4-1.5 1-1.5zm0 45c0.6 0 1 0.7 1 1.5c0 0.9 0.6 1.3 1.5 1c0.8-0.3 1.5 0 1.5 0.5c0 0.5-0.5 1-1 1c-0.6 0-0.8 0.7-0.5 1.5c0.3 0.8 0.1 1.7-0.5 2c-0.6 0.3-1.2-0.1-1.5-0.7c-0.4-1.1-0.6-1.1-1 0c-0.3 0.6-0.9 1-1.5 0.7c-0.6-0.3-0.8-1.2-0.5-2c0.3-0.8 0.1-1.5-0.5-1.5c-0.6 0-1-0.5-1-1c0-0.5 0.7-0.8 1.5-0.5c0.9 0.3 1.5-0.1 1.5-1c0-0.8 0.4-1.5 1-1.5z" />
		<path id="Path 7" class="s3" d="m28 107c0.6 0 1 0.9 1 2q0 2 2 2c1.1 0 2 0.5 2 1c0 0.5-0.9 1-2 1q-2 0-2 2c0 1.1-0.4 2-1 2c-0.6 0-1-0.9-1-2q0-2-2-2c-1.1 0-2-0.5-2-1c0-0.5 0.9-1 2-1q2 0 2-2c0-1.1 0.4-2 1-2z" />
	</g>
</svg>