<svg version="1.2" xmlns="http://www.w3.org/2000/svg" viewBox="0 0 58 463" width="58" height="463">
	<title>buttons-top</title>
	<style>
		.s0 { fill: #01b9d9 } 
		.s1 { fill: #01e1fe } 
		.s2 { fill: #96ccd8 } 
		.s3 { fill: #f6f7f7 } 
	</style>
	<g id="Background">
		<path id="Path 0" class="s0" d="m34.6 21.6c0.8 0.7 2.3 1.4 3.4 1.4c1.1 0 2.7 0.7 3.5 1.5c1.3 1.3 1.3 1.7-0.3 3.6c-0.9 1.2-3.4 3-5.5 4c-2.3 1.2-5.8 1.9-9.2 1.9c-3 0-6.6-0.6-8-1.3c-1.4-0.6-2.5-1.5-2.5-2c0-0.4 0.7-1.4 1.5-2.2c0.8-0.8 1.7-1.2 2-0.8c0.3 0.5 2.4 0 4.8-0.9c2.3-1 5.2-2.8 6.5-4.2c2-2.2 2.5-2.3 3.8-1z" />
		<path id="Path 1" class="s1" d="m19.2 14c1.3 0 4.7 1.4 12.8 6l3-3c1.6-1.7 3.7-3 4.5-3c0.8 0 2.2 1 3 2.3c0.8 1.2 1.5 3.7 1.5 5.5c0 1.7-0.5 3.4-1 3.7c-0.5 0.3-1 0.1-1-0.5c0-0.6-1.8-1.4-4-2c-2.2-0.6-4-1.4-4-2c0-0.6-1.5 0.3-3.3 1.8c-1.7 1.5-5 3.4-7.2 4.1c-2.2 0.7-4.3 0.9-4.6 0.4c-0.3-0.4-1.2-2.8-1.9-5.3c-0.7-2.5-1-5.3-0.7-6.3c0.4-0.9 1.6-1.7 2.9-1.7zm-7.7 11c0.3 0 2 0.8 3.8 1.9c2.9 1.7 3 1.9 1.2 2.5c-1.3 0.4-2.7 0-3.8-1.1c-1-1-1.8-2.1-1.7-2.5c0-0.5 0.2-0.8 0.5-0.8z" />
		<path id="Path 2" fill-rule="evenodd" class="s0" d="m25.8 62c0.9 0 2.5 0.8 3.5 1.8c1 1 1.8 3.1 1.7 5c0 1.7 0.5 3.4 1 3.7c0.5 0.3 0.7 1.1 0.4 1.7c-0.5 1-0.8 1-1.8 0c-0.6-0.7-2.5-1.2-4.1-1.2c-1.6 0-3.8-0.8-4.8-1.8c-1-0.9-1.8-2.5-1.7-3.5c0-0.9 0.9-2.6 2-3.7c1.1-1.1 2.8-2 3.7-2zm-3.1 6.8c0.6 1 2.2 1.7 3.5 1.7c1.5 0 2.5-0.6 2.6-1.7c0.2-1-0.3-2.5-1-3.3c-0.6-0.9-1.7-1.6-2.3-1.5c-0.7 0-1.8 0.7-2.5 1.6c-1.1 1.2-1.1 2-0.3 3.2z" />
		<path id="Path 3" fill-rule="evenodd" class="s2" d="m27 120c1.7 0 3.8 0.8 4.8 1.9c0.9 1.1 2.2 2.6 2.9 3.3c0.7 0.7 1.9 1.9 2.8 2.6c0.8 0.6 1.5 2.1 1.5 3.2c0 1.1-0.7 2.7-1.6 3.5c-1.1 1.1-3.8 1.5-10.2 1.5c-6.9 0-9.1-0.4-10.5-1.8c-1-0.9-1.7-2.8-1.7-4.2c0-1.4 0.7-3.3 1.5-4.3c0.9-0.9 2-1.7 2.5-1.7c0.6 0 1.9-0.9 3-2c1.1-1.1 3.3-2 5-2zm-7.3 6.6c-1.5 0.8-2.7 2.2-2.7 3.2c0 0.9 0.5 2.3 1.2 3c0.8 0.8 4.1 1.2 8.8 1.3c5.6 0 7.8-0.4 8.8-1.6c0.9-1.2 0.9-1.8-0.1-3c-0.6-0.9-1.8-1.6-2.5-1.5c-0.6 0-1.2-0.7-1.2-1.5c0-0.8-0.7-2.2-1.5-3c-0.8-0.8-2.3-1.5-3.4-1.5c-1 0-2.5 0.7-3.2 1.6c-0.8 0.9-2.6 2.3-4.2 3zm1.5 34.5c0.5-0.1 0.8 0.3 0.8 0.9c0 0.6 2.2 1 5 1c3.2 0 5.1-0.5 5.3-1.3c0.2-0.8 1-0.6 2.5 0.8c2 1.8 2.2 2.8 1.7 20h-19l-0.3-9c-0.2-7.5 0.1-9.3 1.5-10.7c1-0.9 2.1-1.7 2.5-1.7zm5.8 6.9c6.4 0 8-0.3 8-1.5c0-1.2-1.6-1.5-8-1.5c-6.4 0-8 0.3-8 1.5c0 1.2 1.6 1.5 8 1.5zm-8 13h16v-11h-16zm4.9 27c0.9-0.1 2.2 0.6 2.8 1.5c0.7 0.8 1.2 2.2 1 3.1c-0.1 0.9-1 2.2-2 2.8c-1.2 0.8-2.2 0.8-3.5 0c-0.9-0.6-1.8-1.9-2-2.8c-0.1-0.9 0.3-2.3 0.9-3.1c0.6-0.8 1.9-1.5 2.8-1.5zm-1 5.5q1.1 1 2.2 0c0.6-0.6 0.8-1.6 0.5-2.3c-0.3-0.6-1-1.2-1.6-1.2c-0.5 0-1.2 0.6-1.6 1.2c-0.3 0.7-0.1 1.7 0.5 2.3zm8-5.3c0.8 0.2 1.9 1.1 2.5 2c0.8 1.3 0.8 2.3 0 3.5c-0.6 1-1.7 1.9-2.5 2.1c-1 0.2-1.4-0.9-1.4-3.8c0-2.9 0.4-4 1.4-3.8zm-6.9 8.8c1.9 0 4.5 0.7 5.7 1.5c1.3 0.8 2.3 2.4 2.3 3.5c0 1.8-0.7 2-8 2c-7.2 0-8-0.2-8.1-1.9c-0.1-1.1 0.9-2.7 2.2-3.6c1.3-0.8 4-1.5 5.9-1.5zm0.2 5c5.2 0 5.6-0.1 4-1.5c-0.9-0.9-2.8-1.5-4.2-1.5c-1.4 0-3.2 0.7-4.1 1.5c-1.3 1.3-0.8 1.5 4.3 1.5zm10.3-4c0.5 0 1.6 0.5 2.3 1.2c0.7 0.7 1.2 2.1 1.2 3c0 1.1-0.8 1.8-2 1.8c-1.5 0-2.1-0.8-2.3-3c-0.2-1.7 0.2-3 0.8-3zm-8.3 76c1.5 0 4 0.6 5.5 1.4c1.6 0.7 3.4 2.5 4 4c0.7 1.4 1.3 3.5 1.3 4.6c0 1.1-0.5 3-1.1 4.2c-0.6 1.3-2.1 3.1-3.3 4c-1.1 1-3.8 1.8-5.9 1.8c-2.6 0-4.4-0.7-6.2-2.5c-1.4-1.4-2.8-3.7-3.1-5.3c-0.3-1.5-0.3-3.7 0-5c0.3-1.2 1.8-3.3 3.3-4.7c1.5-1.5 3.8-2.5 5.5-2.5zm-6.3 7c-0.9 1.9-0.8 3.3 0.2 5.8c0.8 1.8 2.5 3.8 3.9 4.4c1.9 0.8 3.3 0.7 5.8-0.3c2.1-0.9 3.7-2.5 4.4-4.4c0.7-2.2 0.7-3.7-0.1-5.5c-0.6-1.4-2.2-3.1-3.6-3.8c-1.4-0.6-3.1-1.2-3.8-1.1c-0.6 0-2.2 0.6-3.5 1.2c-1.2 0.7-2.7 2.3-3.3 3.7zm4.8 37c3.9 0 5.3 0.6 7.6 2.8c2.5 2.5 2.7 3.3 2.7 17.2l-15.5-0.5l-0.3-8.4c-0.1-4.6 0-9 0.2-9.8c0.4-0.8 2.2-1.3 5.3-1.3zm-3.7 18h12c0-10.7-0.1-11-2.5-11c-2 0-2.5-0.5-2.5-2.5c0-2.2-0.4-2.5-3.5-2.5h-3.5zm-3 27h18v18h-18zm2 16h14v-14h-14zm-1 27h6c5.2 0 6.2 0.3 7.2 2.3c0.6 1.2 1.2 2.4 1.2 2.7c0.1 0.3 0.4 0.4 0.8 0.2c0.5-0.1 0.8 3.2 0.8 14.8h-16zm2 18h12c0-9.3-0.5-12.2-1-12.5c-0.5-0.3-0.7-1.1-0.3-1.8q0.8-1.2-0.5-0.5c-0.6 0.5-1.4 0.4-1.7-0.2c-0.3-0.6-2.3-1-4.5-1h-4z" />
		<path id="Path 4" fill-rule="evenodd" class="s3" d="m26.9 250c3.2 0 4.7 0.6 7.1 3c2.3 2.3 3 3.9 3 7c0 3.1-0.7 4.7-2.9 7c-2.3 2.4-3.8 3-7 3c-3.2 0-4.7-0.6-7.1-3c-2.4-2.4-3-3.8-2.9-7.1c0-3 0.8-4.8 2.9-7c2.2-2.3 3.7-2.9 6.9-2.9zm-2.9 8c0 0.6 1.4 1.7 3 2.5c1.8 0.9 2.7 1.9 2.3 2.6c-0.5 0.6-1.8 1-2.9 0.8c-1.8-0.3-2-0.1-1.1 1.1c0.6 0.8 1.3 1.7 1.4 2c0.1 0.3 1.1-0.6 2.2-2c1-1.4 1.7-2.9 1.5-3.5c-0.2-0.6-1.5-1.3-2.9-1.8c-1.4-0.4-2.5-1.4-2.5-2.2c0-1 0.8-1.4 2.3-1.3c2 0.3 2.2 0 1.3-1.5c-0.6-0.9-1.3-1.7-1.7-1.7c-0.3 0-1 0.9-1.7 2c-0.7 1.1-1.2 2.4-1.2 3z" />
		<path id="Path 5" class="s2" d="m27.8 301.6c0.2 1.6 0.9 3.2 1.5 3.6c0.7 0.4 0.9 1.1 0.5 1.5c-0.4 0.4-1.5 0.1-2.3-0.7c-0.9-0.8-1.6-2.4-1.7-3.6c-0.1-1.1 0.3-2.4 0.7-2.9c0.5-0.4 1.1 0.5 1.3 2.1zm-0.8 85.4c0.5 0 1 2.2 1 5c0 2.7-0.5 5-1 5c-0.6 0-1-2.3-1-5c0-2.8 0.4-5 1-5zm-4 3c0.5 0 1 1.6 1 3.5c0 1.9-0.5 3.5-1 3.5c-0.6 0-1-1.6-1-3.5c0-1.9 0.4-3.5 1-3.5zm8 3c0.5 0 1 0.9 1 2c0 1.1-0.5 2-1 2c-0.6 0-1-0.9-1-2c0-1.1 0.4-2 1-2zm-3.4 36c0.8 0 1.4 0.4 1.4 1c0 0.5-0.1 1.3-0.2 1.7c-0.1 0.5-0.8 0.7-1.5 0.5c-0.7-0.1-1.5 0.2-1.8 0.8c-0.3 0.5 0.5 1.4 1.7 1.9c2 0.8 2.1 1 0.5 1.5c-0.9 0.3-2.4 0-3.2-0.7c-0.9-0.6-1.7-1.6-1.7-2.1c-0.1-0.5 0.7-1.8 1.7-2.8c1-1 2.4-1.8 3.1-1.8zm1.9 9.4c0.1 0.2 0 1.4-0.2 2.5c-0.2 1.2-0.9 2.1-1.6 2.1c-0.6 0.1-1.8-0.5-2.4-1.2c-0.7-0.7-1.1-1.6-1-2c0.2-0.4 1.1-0.5 2-0.2c1 0.2 2-0.1 2.4-0.7c0.3-0.6 0.7-0.8 0.8-0.5z" />
	</g>
</svg>